<svg width="86" height="86" viewBox="0 0 86 86" fill="none" xmlns="http://www.w3.org/2000/svg">
  <path d="M11.6921 35.0592L46.043 71.3305C47.1702 72.5128 49.1606 72.4727 50.3232 71.3707L52.3586 69.4385L54.346 71.5224C55.4732 72.7048 57.3394 72.7743 58.5015 71.6736L62.0103 68.343L73.1335 79.7533C73.2108 79.8373 84.6099 85.8936 84.6099 85.8936C84.9854 86.0843 85.3879 86.0219 85.7497 85.68C86.0952 85.3369 86.0736 84.7058 85.7431 84.3591L66.4698 64.1095L69.8754 60.8768C71.0374 59.7754 71.0656 57.917 69.9384 56.7352L67.9455 54.6434L69.9809 52.7118C71.1429 51.6105 71.0386 49.8558 69.912 48.6741L35.5626 12.4027C34.436 11.221 32.5758 11.1574 31.4131 12.2594L24.6044 18.7231L15.8735 9.5048L22.3194 3.38663C23.095 2.65117 23.1142 1.41542 22.3614 0.625928C21.6091 -0.162907 20.3619 -0.215105 19.5851 0.52035L0.594422 18.5447C-0.181238 19.2801 -0.200434 20.5165 0.552429 21.3054C1.30468 22.0948 2.55193 22.1464 3.32747 21.411L9.83506 15.2346L18.5659 24.4535L11.7566 30.9172C10.5946 32.0179 10.5658 33.8769 11.6924 35.0587L11.6921 35.0592ZM15.1828 33.1096L33.5515 15.6734L42.4634 25.083L24.0947 42.5192L15.1828 33.1096ZM30.3294 44.4982L38.0625 37.1653C38.4506 36.7964 39.0697 36.8186 39.4464 37.2133C39.8231 37.6075 39.8129 38.2253 39.426 38.5937L31.6929 45.9265C31.3048 46.2949 30.6857 46.2721 30.3102 45.8774C29.9316 45.485 29.9412 44.8666 30.3294 44.4982V44.4982ZM38.3679 52.9307L46.101 45.5978C46.4879 45.2295 47.1082 45.2523 47.4838 45.647C47.8593 46.0417 47.8509 46.6602 47.4634 47.0273L39.7313 54.3596C39.3426 54.7279 38.7235 54.7063 38.3474 54.3104C37.9701 53.9163 37.9809 53.2978 38.3678 52.9307L38.3679 52.9307ZM46.4071 61.3619L54.1402 54.0296C54.5271 53.6607 55.1474 53.6829 55.5229 54.0776C55.8985 54.4723 55.8901 55.0908 55.5025 55.4579L47.7705 62.7908C47.3824 63.1579 46.7627 63.1358 46.3866 62.741C46.0098 62.3475 46.02 61.729 46.407 61.3619L46.4071 61.3619ZM34.3482 48.7142L39.9668 43.3867C40.3555 43.0178 40.9746 43.04 41.3507 43.4347C41.7262 43.8294 41.7178 44.4479 41.3291 44.8138L35.7105 50.1431C35.3224 50.5114 34.7033 50.4886 34.3266 50.0939C33.9517 49.7004 33.9613 49.0819 34.3482 48.7142V48.7142ZM42.3873 57.1454L48.0078 51.8179C48.3947 51.4496 49.015 51.4712 49.3905 51.8659C49.766 52.2606 49.7576 52.8791 49.3701 53.2462L43.7509 58.5749C43.3628 58.9432 42.7437 58.9204 42.367 58.5269C41.9903 58.1316 41.9999 57.5143 42.3874 57.1454L42.3873 57.1454Z" fill="#121739" fill-opacity="0.8"/>
</svg>
