<svg width="88" height="81" viewBox="0 0 88 81" fill="none" xmlns="http://www.w3.org/2000/svg">
<path d="M35.4892 23.9406L21.7786 0C20.8907 0.510291 20.0297 1.05086 19.1852 1.61343C18.0291 2.4002 16.9102 3.22891 15.8318 4.11541C14.7569 5.00396 13.7314 5.93991 12.7494 6.92144C11.7583 7.90077 10.8203 8.9345 9.93787 10.0065C9.05 11.0753 8.21234 12.1935 7.43307 13.3469C6.65249 14.5071 5.92281 15.6982 5.25152 16.9306C4.57961 18.1616 3.97234 19.425 3.4242 20.731C2.86713 22.0274 2.38504 23.3554 1.95864 24.7184C1.53225 26.0829 1.17807 27.4653 0.888536 28.8799C0.599693 30.2932 0.376168 31.7368 0.224194 33.192C0.0804573 34.6575 0 36.1369 0 37.6354L27.5128 37.6367C27.5142 31.7766 30.7306 26.6571 35.4885 23.9398L35.4892 23.9406Z" fill="#40435F"/>
<path d="M59.053 37.6379H87.0165C87.0165 36.1394 86.9443 34.6601 86.793 33.1945C86.6479 31.7393 86.4244 30.2957 86.1349 28.8825C85.8474 27.4678 85.4864 26.0854 85.0648 24.721C84.6404 23.3579 84.148 22.0299 83.5992 20.7336C83.0511 19.4276 82.4383 18.1635 81.774 16.9332C81.1 15.7007 80.3717 14.5095 79.5898 13.3495C78.803 12.1961 77.973 11.0772 77.0845 10.0091C76.1959 8.93693 75.2647 7.90325 74.2758 6.924C73.2924 5.94261 72.2587 5.00654 71.1844 4.11797C70.115 3.23148 68.9933 2.40276 67.8393 1.61599C66.9954 1.05343 66.1261 0.512872 65.2464 0.00256348L51.421 24.1385C55.9896 26.9025 59.0514 31.9188 59.0528 37.6374L59.053 37.6379Z" fill="#40435F"/>
<path d="M43.2833 53.4111C40.3899 53.4111 37.6783 52.6243 35.3448 51.2584L21.5151 75.1726C22.8163 75.9222 24.1375 76.6017 25.4819 77.198C26.8258 77.7984 28.1827 78.3313 29.5478 78.7859C30.9206 79.2405 32.307 79.6291 33.7018 79.9399C35.0903 80.2487 36.4892 80.4949 37.8915 80.6689C39.302 80.8402 40.703 80.9495 42.1032 80.9853C43.5055 81.0211 44.9071 80.9922 46.3004 80.8904C47.6945 80.79 49.0802 80.6304 50.4544 80.3993C51.8271 80.1703 53.1916 79.8746 54.5354 79.5128C55.8786 79.1532 57.2066 78.7282 58.5084 78.2447C59.8158 77.7557 61.1005 77.2062 62.3514 76.6017C63.2668 76.1547 64.1719 75.6774 65.0522 75.1657L51.1276 51.3132C48.8154 52.6446 46.1381 53.4115 43.2833 53.4115V53.4111Z" fill="#40435F"/>
<path d="M55.8011 37.6592C55.8011 44.4478 50.2979 49.9516 43.5087 49.9516C36.72 49.9516 31.2162 44.4477 31.2162 37.6592C31.2162 30.87 36.7202 25.3667 43.5087 25.3667C50.2979 25.3667 55.8011 30.87 55.8011 37.6592Z" fill="#40435F"/>
</svg>
