<svg width="67" height="88" viewBox="0 0 67 88" fill="none" xmlns="http://www.w3.org/2000/svg">
<path d="M17.5476 81.6216C22.1074 81.6216 25.8225 77.9064 25.8225 73.3466V66.662C20.9255 61.9899 17.8715 55.4042 17.8715 48.1278C17.8715 41.7949 20.1792 35.9833 24.0074 31.5082H9.28772V73.3468C9.28772 77.9059 12.9887 81.6211 17.5478 81.6211L17.5476 81.6216Z" fill="#40435F"/>
<path d="M43.498 38.8831L37.841 48.5648C35.2936 52.8997 38.4038 58.4022 43.498 58.4022C48.5218 58.4022 51.7024 52.9701 49.1415 48.5655L43.498 38.8831Z" fill="#40435F"/>
<path d="M43.4841 24.6143C30.495 24.6143 19.9821 35.169 19.9821 48.1302C19.9821 60.9363 30.3676 71.6461 43.4841 71.6461C56.4589 71.6461 67 61.0913 67 48.1302C67 35.1688 56.4594 24.6143 43.4841 24.6143V24.6143ZM43.4983 60.5141C36.7934 60.5141 32.6489 53.2748 36.0118 47.4966L42.5838 36.2522C42.7809 35.9285 43.1189 35.7314 43.4989 35.7314C43.8789 35.7314 44.2168 35.9285 44.4139 36.2522L50.9718 47.5101C54.3786 53.4428 50.0499 60.5141 43.4981 60.5141H43.4983Z" fill="#40435F"/>
<path d="M29.342 73.3471C29.342 79.8487 24.0506 85.1401 17.549 85.1401C10.9912 85.1401 5.77022 79.8203 5.77022 73.3471L5.76954 11.131H29.3409V26.7658C30.0162 26.3153 30.72 25.8934 31.4522 25.5134V11.1311H34.0559C34.633 11.1311 35.1112 10.6529 35.1112 10.0758V1.05527C35.1112 0.47819 34.633 0 34.0559 0H1.05527C0.478189 0 0 0.47819 0 1.05527V10.0758C0 10.6529 0.478865 11.1311 1.05527 11.1311H3.65897V73.3472C3.65897 81.0593 9.89306 87.2507 17.5483 87.2507C25.2183 87.2507 31.4525 81.0166 31.4525 73.3472V70.7434C30.721 70.3635 30.0173 69.9415 29.3413 69.4911L29.342 73.3471Z" fill="#40435F"/>
</svg>
