<svg width="43" height="60" viewBox="0 0 43 60" fill="none" xmlns="http://www.w3.org/2000/svg">
<path d="M41.325 50.751C40.9191 50.751 40.6002 51.0699 40.6002 51.4758C40.6002 54.5646 32.5672 58.0008 21.0252 58.0008C9.48311 58.0008 1.45015 54.5646 1.45015 51.4758C1.45015 51.0699 1.13119 50.751 0.72532 50.751C0.318968 50.751 0 51.0699 0 51.4758C0 55.9419 9.23642 59.451 21.0254 59.451C32.8144 59.451 42.0508 55.9419 42.0508 51.4758C42.0508 51.0699 41.7319 50.751 41.3255 50.751H41.325Z" fill="#4F97D2"/>
<path d="M20.5183 49.0978C20.6635 49.243 20.8373 49.3008 21.0257 49.3008C21.214 49.3008 21.3883 49.2284 21.533 49.0978C22.3161 48.3293 40.6009 30.1604 40.6009 19.575C40.6009 8.78687 31.814 0 21.0259 0C10.2378 0 1.45091 8.78737 1.45091 19.575C1.45091 30.1602 19.7358 48.3285 20.5188 49.0978H20.5183ZM21.0257 11.6008C24.6218 11.6008 27.5507 14.5297 27.5507 18.1258C27.5507 21.7219 24.6218 24.6508 21.0257 24.6508C17.4296 24.6508 14.5007 21.7219 14.5007 18.1258C14.5007 14.5297 17.4296 11.6008 21.0257 11.6008Z" fill="#4F97D2"/>
</svg>
