<svg width="30" height="47" viewBox="0 0 30 47" fill="none" xmlns="http://www.w3.org/2000/svg">
<path d="M22.8766 0H6.8223C5.01464 0 3.28084 0.717471 2.00158 1.99469C0.722587 3.27191 0.00273874 5.00465 0 6.81267V40.1873C0.00276083 41.9953 0.722649 43.7281 2.00158 45.0053C3.28084 46.2825 5.01464 47 6.8223 47H22.8766C24.6829 47 26.4153 46.2822 27.6919 45.0043C28.9687 43.7267 29.6855 41.9939 29.6842 40.1873V6.81267C29.6856 5.00607 28.9688 3.27333 27.6919 1.99575C26.4153 0.717816 24.6829 0 22.8766 0ZM14.842 44.2793C14.1859 44.2793 13.5568 44.0187 13.0926 43.5549C12.6288 43.0907 12.3682 42.4616 12.3682 41.8056C12.3682 41.1495 12.6288 40.5204 13.0926 40.0566C13.5568 39.5924 14.1859 39.3319 14.842 39.3319C15.498 39.3319 16.1271 39.5924 16.5913 40.0566C17.0551 40.5204 17.3157 41.1495 17.3157 41.8056C17.3157 42.4616 17.0551 43.0907 16.5913 43.5549C16.1271 44.0187 15.498 44.2793 14.842 44.2793ZM27.2105 36.3636H2.47344V8.1634H27.2105V36.3636Z" fill="#4F97D2"/>
</svg>
